<?xml version="1.0" encoding="UTF-8"?>
<svg xmlns="http://www.w3.org/2000/svg" width="1180" height="760" viewBox="0 0 1180 760"><g><path d="M202.75092451840942 79.69046995990395 L1117.5478101424712 79.99880364011929 L1117.3794701714905 723.2498688832026 L196.58031383192153 716.6284950188763" stroke="none" stroke-width="0" fill="#fbf9fa"></path><path d="M200.583699849635 80.452280499434 C392.78653061381834 80.59278296864333, 585.0112570883765 81.29445985872825, 1120.091896857809 78.69449606051096 M199.39559159853624 79.34535896582688 C406.7097194671644 79.51755032675648, 614.4201796302273 79.15421596049893, 1119.767310314775 79.63985631839641 M1120.567654946838 79.11228794339806 C1124.8415310112973 244.11173818117106, 1125.1654139792533 406.68469450589237, 1119.2297741009509 718.6511675384514 M1120.0791788699223 80.50254476716512 C1125.2389003393992 274.5571370831738, 1125.261146453608 469.66055184596416, 1119.6642293528375 719.8870549303783 M1119.5245182273304 719.9307143336637 C808.0124824292277 729.6841557934176, 493.48444131380217 728.7577758159943, 198.75844012602022 718.8278276697213 M1119.7979510659397 720.63023122432 C788.6565052474401 717.5625516837928, 458.41243627940514 716.5563148978223, 199.70737140359924 720.6866145290627 M201.11498031479854 719.3599150485812 C195.77909476954568 538.6171107139858, 197.2486328466055 360.1045629156391, 201.1878939669171 78.86460672577891 M199.95070844229537 719.5827952572424 C195.60683417026127 470.71027371488384, 195.47240167112273 221.3491645871071, 199.93666196398473 80.40668070080132" stroke="#1f2430" stroke-width="2" fill="none"></path></g><text x="660" y="110" font-family="Architects Daughter" font-size="22" fill="#1f2430" text-anchor="middle" font-weight="bold">LLM-OBJECT</text><g><path d="M228.06628912200364 131.92903451871246 L1091.9885589361809 133.6104503714582 L1089.9875747453577 206.88170851673252 L231.10220573193794 203.21965360524285" stroke="none" stroke-width="0" fill="#ffffff"></path><path d="M230.30140091228142 133.9790642301019 C469.8516449482059 138.99525089876826, 708.8944891702765 140.78124700659114, 1090.8056965099927 135.33655875817522 M230.13289592540696 135.42794936967297 C568.1151382189619 131.99658505862516, 905.4712039110897 132.02806138028348, 1090.5812485140698 135.1115157939716 M1088.8611098493184 135.1422089437937 C1089.306772815063 146.1663228071819, 1091.8374818061045 165.6178158039966, 1086.960833062757 203.72889181338454 M1089.7405299245784 134.2821217559489 C1092.3664940551166 163.03053807271488, 1091.4718216802282 191.37662782632563, 1089.113292080354 206.1991985469454 M1090.7937624581857 205.09105209765423 C917.2168865027184 209.5544614176147, 743.8093637197342 208.6104486119463, 229.08358917880355 205.22827575109895 M1089.404505750543 204.72371534761436 C839.4297924352484 206.7440181437657, 589.6177572970196 207.22593968281697, 229.38119658510394 204.95867127907837 M232.7716811083709 205.30963708641357 C227.93900183634594 190.5945370629672, 231.7975769843976 179.33836844536074, 229.0806246076571 137.58675718294202 M230.75525044348655 205.1872855895598 C227.7488588116829 186.60248427895652, 229.75592202689 171.41579728591475, 229.6079224875455 133.90434904021308" stroke="#1f2430" stroke-width="1.5" fill="none"></path></g><text x="250" y="160" font-family="Architects Daughter" font-size="17" fill="#1f2430" text-anchor="start">name:  ...</text><text x="250" y="185" font-family="Architects Daughter" font-size="17" fill="#1f2430" text-anchor="start">description:  ...</text><g><path d="M226.93661112137445 222.88049228001228 L1087.1385750883003 225.12700472967316 L1092.8541675409933 446.29057904670003 L231.31339260707793 445.35361826778" stroke="none" stroke-width="0" fill="#f8f9ff"></path><path d="M229.78580289248373 225.61598590194154 C522.9709474062964 228.46110460322288, 817.3175333310066 227.50507189782257, 1091.234708896649 224.27016678615064 M230.24817642242076 224.69218616403873 C522.7488232157928 220.3252252408841, 816.0541615304888 220.21244192358762, 1089.8943610026413 225.46942654704412 M1087.5139546124415 222.92517163850883 C1093.3801686913616 310.2103427051663, 1090.2251141644056 401.85720553754146, 1089.0859465588244 445.8673548870419 M1089.521823761172 225.47205999756213 C1093.4758006544143 275.28443821464396, 1094.483473607982 326.3411722997616, 1090.4933888160342 443.6648413759246 M1089.368424756387 445.7515735597663 C788.3724281689241 447.06180728367747, 485.57603362811085 449.36810010800673, 231.15678630428474 445.3903148579586 M1089.9439644562037 445.3723441037354 C860.2586258992845 451.92718566142076, 629.1245153494018 451.2209203221632, 230.2626843793057 445.63655234337904 M229.43546756260164 445.3336172294427 C229.01608069731543 389.04498085158116, 227.7999355093112 331.53927919097276, 231.17672686411217 224.32978017791086 M230.76197056545072 444.91374950265606 C226.83561676246313 362.02980668436936, 227.33335255234647 281.05126830882307, 228.80532258091063 226.3115536655954" stroke="#1f2430" stroke-width="1.5" fill="none"></path></g><text x="660" y="247" font-family="Architects Daughter" font-size="18" fill="#1f2430" text-anchor="middle" font-weight="bold">ENGINES</text><g><path d="M292.8056005783604 274.7874242411092 L429.8379877530332 273.55236218240645 L427.2079940790006 319.9301003560141 L292.16084166479703 317.2940233486913" stroke="none" stroke-width="0" fill="#e0e7ff"></path><path d="M291.426377577851 273.37597691372537 C341.32736378074424 273.1800735143667, 386.4949625975432 272.2763907158514, 433.0455023441622 270.5873312430414 M288.56895477857177 274.3107489326253 C333.2900444094164 273.6691496175064, 373.79800964242577 272.763824531284, 429.3627491350425 272.05391483249645 M432.3657562807788 273.20732795290246 C433.03538442547585 285.8647957426076, 426.99895865235 299.68440490944977, 432.580460955985 320.0121865572183 M431.29127359275105 273.77003245365694 C429.9428015581223 289.16372562254685, 431.3329789953234 304.00700489800954, 430.3335566494847 317.57329189494345 M427.6327130274878 321.2215684727689 C382.6596634651124 322.72150923096603, 334.51499133180283 320.8495477577732, 291.81528258054476 317.5349579029295 M430.02217409440556 318.74669253261703 C381.6451202312209 317.16441671796645, 336.68386481319266 317.5439625841425, 290.77519837328697 318.83360354924014 M293.11383015142314 319.2936625210392 C291.00436303967507 303.30754345455193, 289.78029150648825 288.0276755987848, 287.14716428169265 272.81051394389556 M290.75752425431693 319.63303671314196 C289.80449448991277 306.82518718668075, 291.9222147960992 296.0025438906023, 290.78389371751365 273.0600857001897" stroke="#1f2430" stroke-width="1.5" fill="none"></path></g><text x="360" y="302" font-family="Architects Daughter" font-size="17" fill="#1f2430" text-anchor="middle" font-weight="bold">planner</text><g><path d="M467.54447081602336 273.07996802001827 L611.7840540697016 270.129757146153 L610.5422167773843 316.4450901070267 L467.58249631879664 315.88459703292756" stroke="none" stroke-width="0" fill="#e0e7ff"></path><path d="M468.9911916194823 269.9963358300132 C512.6141472804712 273.90329668981377, 553.6728002295383 273.2470344939071, 610.3508630694579 273.02828762497614 M471.26071445988265 273.73015687303064 C511.3114760184579 275.10737126510065, 555.2004018283158 274.40429728424493, 608.9870165229922 272.7082649504967 M606.8488983027348 270.67049434270467 C611.4137518458281 279.63066227418506, 612.1775685126177 290.10024495302446, 608.4806225811869 318.4917763598043 M610.568580858944 272.1511760299619 C611.0624327837127 284.1162416306, 607.9824191547223 294.77310152630645, 610.9452936796234 320.16240098612104 M608.6257001262659 321.21430833079086 C570.9616212519531 321.54886298650166, 523.0309530588881 319.90909310362457, 468.5778810190761 318.1799899287969 M609.8340136634895 318.91293480125904 C567.8036105413672 322.18561923014937, 523.135966295987 321.60568917666967, 470.8839173542788 319.1736657779877 M470.7608757336555 316.3265173539338 C471.07123881405806 307.9406517765451, 467.1945651301368 296.6912131201864, 468.75098353441 274.16232425452694 M470.8183966261819 318.13135646186845 C470.71997396541235 306.71996266965124, 469.52065303330096 294.42700164615843, 471.2552906849292 272.00096410798955" stroke="#1f2430" stroke-width="1.5" fill="none"></path></g><text x="540" y="302" font-family="Architects Daughter" font-size="17" fill="#1f2430" text-anchor="middle" font-weight="bold">executor</text><g><path d="M651.8298201433918 270.0269746669433 L787.4159903303574 273.04832425221514 L787.7863149590672 316.7149677336694 L651.0000943539017 316.63924154350684" stroke="none" stroke-width="0" fill="#e0e7ff"></path><path d="M650.7019135244072 275.1106346419542 C687.8557591797203 275.1504308753471, 719.4131135538701 272.72372281506006, 788.0220262942962 275.9637771176507 M648.9883513862771 271.94160601377956 C704.157915804704 272.92114501099724, 755.2107899947318 272.61840030395115, 789.1205554996185 271.7217527842888 M790.5054054364314 270.6294179185776 C789.905386236609 285.04460701056456, 791.8720781089595 298.34905607007335, 791.1056576067 319.87065389244145 M789.9557878163362 272.124587672471 C790.5237370864764 283.34731322083513, 788.4657460920735 295.05126844789686, 790.281448670419 320.5191761314424 M792.8208178890122 320.2845867751198 C743.7457349444046 318.8053312528263, 698.539009731904 324.0429750178555, 648.7397203378723 318.88879989702747 M788.4300932317446 320.34566454151303 C750.6672361395931 316.5774494404803, 713.1862958974884 317.52168166500053, 650.7711803935663 319.41162137460856 M648.2950208289828 321.8147216146654 C646.9622753000757 303.8776128854807, 650.002696901395 290.28838640672126, 652.8223468843979 271.79411945476494 M648.40339666394 319.9986067865433 C650.532394228282 304.49726945082574, 651.3261457153786 291.64562966270245, 651.3866403993106 274.55486748489216" stroke="#1f2430" stroke-width="1.5" fill="none"></path></g><text x="720" y="302" font-family="Architects Daughter" font-size="17" fill="#1f2430" text-anchor="middle" font-weight="bold">evaluator</text><g><path d="M432.30458459819823 296.4978064550029 C441.3236735402801 294.2166606159728, 445.53726850163355 295.95919343549843, 465.2215453021043 297.4027475743102 M433.0176603435967 296.723015132979 C445.0130363503039 295.77402519428455, 455.2460104469271 296.1695600040966, 466.4032509678803 295.75779397708396" stroke="#1f2430" stroke-width="1.5" fill="none"></path></g><g><path d="M465.6949038362098 295.4277290290336 C463.3539073872835 297.4944710352614, 460.00447917045824 299.3221616476086, 456.449807140284 301.30421911393 M466.09505246423504 295.68674376500184 C462.44167927300094 297.5534246325882, 458.90619842323747 299.6473080196565, 456.3035848546246 300.7230630309316" stroke="#1f2430" stroke-width="1.5" fill="none"></path></g><g><path d="M466.4234423785027 296.58646400796937 C464.60825509200055 295.30559953910375, 462.6377836013428 294.30227827749746, 456.33308854756626 291.6201041780361 M465.672596503931 296.2763071985999 C463.2374888029127 294.74223608274906, 460.4772278219975 293.156274385455, 455.9876768547908 290.7067695535423" stroke="#1f2430" stroke-width="1.5" fill="none"></path></g><g><path d="M612.5139515365439 295.5542852439159 C620.2562709610681 296.35029528695804, 628.3095723347936 296.4024954283442, 644.2984399374205 296.16373349955876 M613.3571936226595 296.0976622150186 C620.367779008425 295.297673871143, 627.4087479767908 295.3274985468075, 646.036808534076 296.185062677949" stroke="#1f2430" stroke-width="1.5" fill="none"></path></g><g><path d="M646.4473334773035 296.54217114244585 C644.1959886446559 296.8886304328372, 641.9069117629913 298.6398850325232, 635.4591496333759 300.92932710025815 M646.1440245751301 295.6683509245828 C642.0673759963124 298.2331719337397, 638.3664252252358 300.17312446811775, 636.1628323843656 300.672715704337" stroke="#1f2430" stroke-width="1.5" fill="none"></path></g><g><path d="M645.7706662122384 295.50927953031015 C643.7693907890612 294.4278804089687, 641.177719645513 293.0403290088437, 636.1129965721052 290.5314058831428 M645.79949352418 296.209908952871 C643.0162313080838 294.53678116313625, 640.4916475934809 293.37254332658136, 635.7634506386001 290.74029974856376" stroke="#1f2430" stroke-width="1.5" fill="none"></path></g><g><path d="M720.8413544175819 323.13894742113666 C721.1301871764636 328.9812505296194, 720.2439182054615 336.77057961696977, 719.6326276359472 340.7417342860989 M720.0343935144984 322.6540276147569 C720.239850295843 329.4562569109846, 720.1115819502842 336.4652472027517, 719.8618114384786 340.76468645937973" stroke="#1f2430" stroke-width="1.4" fill="none"></path></g><g><path d="M721.2177261739076 341.40235894277174 C679.4565183608653 341.79813250482795, 639.1058460930806 340.15832751499346, 539.0765387343097 340.23530567551836 M719.4411913517936 341.2836918929119 C661.5798345940051 340.96901163653723, 602.6885804920856 339.9433936518176, 539.4056159576281 340.88593935958363" stroke="#1f2430" stroke-width="1.4" fill="none"></path></g><g><path d="M540.0141115343635 339.5226479978813 C541.6427793091951 334.668722088079, 541.1027850003969 329.12575430124656, 539.3263338527928 323.01280546624906 M540.3210719722138 341.6202974346868 C540.2789643331539 336.6189629210969, 540.0426931586818 333.2480184648207, 539.1888359559342 324.4875336291177" stroke="#1f2430" stroke-width="1.5" fill="none"></path></g><g><path d="M539.6621069579318 323.3751607841429 C541.773469892058 326.20925454336924, 541.9926136156753 328.06037345225195, 545.5453464904192 333.76768819269324 M540.0288153110195 324.2976747777536 C541.7636719412116 327.3259574400314, 542.9538584141868 329.88121895606525, 545.1708434048572 334.07332414219275" stroke="#1f2430" stroke-width="1.5" fill="none"></path></g><g><path d="M540.0644732112611 324.6148242445558 C539.1667099373999 326.4690406952523, 537.7561016653815 329.2143164924728, 535.1645490737704 333.65361026104694 M539.9990740577958 323.9919108986786 C538.4332256368411 327.40359134402735, 536.5641510613196 330.789189753432, 535.1076427586446 333.68790319895203" stroke="#1f2430" stroke-width="1.5" fill="none"></path></g><g><path d="M551.4235133027728 373.9891746116689 L772.0018617613534 377.33118160587304 L770.1299892667599 420.9552499002976 L552.9834076294756 423.9667415612486" stroke="none" stroke-width="0" fill="#fee2e2"></path><path d="M550.4173843819977 375.5871057462736 C612.4636586114194 378.3266032375534, 678.0812112037771 379.8485025754808, 770.4069577436953 373.0774386310101 M549.3215442414488 375.1167659732302 C598.8262635918766 378.34321658856067, 648.2169530670436 380.2585617186825, 768.7594929528916 373.6909535335535 M772.0531890736075 373.4145740939415 C767.7033062646831 395.89860341743486, 771.9971146765255 411.74159336577, 771.6483670440308 418.07571280604026 M770.6033898414362 374.5382957989685 C769.7793586650378 387.5186336794757, 770.0442272688092 398.5963938387641, 771.1091907757456 420.0061903232756 M768.8195509048685 422.9078436813407 C696.2401445596801 418.89499244763243, 622.1670982720782 416.8748913936451, 549.0766899520348 418.4807595466884 M769.6216021914787 421.6640699720915 C699.6061322683677 420.3953140788067, 628.2421052817751 421.364808533703, 551.0732704232701 421.90269522622356 M551.7439498228252 420.3383692319136 C546.7753046443925 402.2819695984905, 552.2534114884924 391.3078931658501, 550.6864446601006 376.077648870806 M548.8820438958319 419.49830642710646 C548.8904511517198 411.38954178299724, 550.6978044407218 401.3490833352488, 551.5850881600384 373.76321833019966" stroke="#b91c1c" stroke-width="1.5" fill="none"></path></g><text x="660" y="404" font-family="Architects Daughter" font-size="17" fill="#7f1d1d" text-anchor="middle" font-weight="bold">self-modifier</text><g><path d="M242.68805679127496 474.01720538701426 L601.6178516492648 473.28045416829474 L601.9626697689358 579.9752664646714 L239.23052647332608 580.1901065159668" stroke="none" stroke-width="0" fill="#fef3c7"></path><path d="M238.80060572385005 472.4004362898237 C315.93277516736265 477.4161644310537, 388.00220419460055 475.1263888602798, 600.3209865666028 472.2214444657434 M240.54553016006392 472.85133775087485 C358.79778926214647 478.17640268488617, 478.9508285731 476.7817635074913, 600.1470241073107 474.0015837884188 M597.1664940991016 471.47236739087447 C598.2587014421294 504.8857153902896, 595.2784640003733 532.8292623445758, 597.8924089909669 579.8417239672448 M600.3417628925214 474.3780719463959 C603.547026802526 515.8981418686633, 602.2179546257173 554.8382059218062, 599.52027237576 582.870256107239 M599.2578012058211 582.1762219495273 C502.6461831402953 577.7861178943147, 404.28646643704127 578.9043906173754, 239.25893870840613 582.9482596753377 M599.8239752495466 582.3366930019783 C520.4329100550686 579.3173759771001, 441.80629158836587 578.3874699733557, 240.05187240173638 582.938719679081 M242.58681861226 581.8511349345873 C240.47985608955395 556.863204357078, 239.02228573606857 532.1429398933449, 241.4787746589716 471.81066037482253 M239.88902688844777 583.1157640231412 C242.08461666299092 546.352352197958, 241.38980613867318 506.96335290642315, 238.66820514481907 472.03550461841473" stroke="#d97706" stroke-width="1.5" fill="none"></path></g><text x="420" y="499" font-family="Architects Daughter" font-size="17" fill="#92400e" text-anchor="middle" font-weight="bold">internal state (obj)</text><g><path d="M270.95497216228773 518.3436823032727 C338.61911290199225 513.0195697721014, 402.919428769983 512.6163979698343, 568.4360178959496 522.9963808623337 M268.7464460374683 521.7281847138605 C334.38535952041576 517.8168585855936, 401.37278482762264 517.4094844868381, 569.7515201443741 520.1909669862226" stroke="#92400e" stroke-width="1" fill="none"></path></g><g><path d="M272.86109082007914 536.8489621857718 C355.1306092962545 543.8196240931645, 448.66787686220897 543.2425038383543, 570.8256527160479 541.1050732864537 M271.435112076318 538.4690626131113 C376.88154286295895 535.8698721141694, 486.2676197149289 535.8530858543417, 570.7263943212715 539.4315969567679" stroke="#92400e" stroke-width="1" fill="none"></path></g><g><path d="M269.9319431633069 558.3805946189349 C364.7888568907217 554.7552330239467, 455.2088236283936 553.7125062635001, 573.1473793652821 555.5173815141527 M271.473939045335 555.9191074406307 C361.34647870033103 550.8202015157223, 451.0687294582792 548.8779954880641, 570.7865881284557 556.8819348312236" stroke="#92400e" stroke-width="1" fill="none"></path></g><g><path d="M637.6221567469885 470.20632728008275 L1057.7396202719715 470.0250543500053 L1060.2461758771676 582.0414114756519 L639.3622968377236 580.3510018642961" stroke="none" stroke-width="0" fill="#fef3c7"></path><path d="M639.784809705317 472.4844529449057 C728.1109115161731 475.9179711080128, 814.7259266269015 475.79939794831625, 1058.7351257025825 474.41944824288225 M639.288677448185 473.476163426955 C781.7878617135256 472.95723301077226, 922.3034946236949 473.69394421312876, 1060.1767873358494 473.0970112130392 M1057.5706699411926 475.88579721321264 C1058.7987276145855 509.41858637696487, 1062.183575184975 542.7995643402688, 1061.368367828196 581.9290715344057 M1061.2935112924085 474.0826840740869 C1062.1731112092884 496.80839832360783, 1059.9985253842078 519.8693111213864, 1058.710475968331 583.5841509551751 M1058.6615810381113 581.4273269605095 C956.6738495450036 585.2615103661047, 852.1903760811057 582.7575534848979, 638.6138742668081 582.1388736069733 M1059.222576403557 582.7302797082112 C928.8743758183879 579.2931120931578, 798.0029144012414 579.9065523274231, 639.628786951691 582.5263061886565 M641.3662149872875 581.4420695023902 C639.4217536061333 544.0791165700804, 639.5461856576791 510.6065755849093, 639.7327917745118 475.1825273594532 M641.5505107353752 581.7203668742075 C641.5279607269217 543.9318804331357, 640.2827892194392 506.25153240374874, 638.6030442694702 472.92844445258135" stroke="#d97706" stroke-width="1.5" fill="none"></path></g><text x="850" y="503" font-family="Architects Daughter" font-size="17" fill="#92400e" text-anchor="middle" font-weight="bold">plans dictionary</text><text x="850" y="531" font-family="Architects Daughter" font-size="17" fill="#92400e" text-anchor="middle" font-weight="bold">for execution</text><g><path d="M419.32048764998257 468.9439569132575 C418.4753439058793 459.36143864820593, 418.1357674225778 454.2353469580044, 418.4323799426598 446.12628756416507 M419.0190019079349 466.15677377116947 C419.20166964107943 462.94623583688184, 420.5834333778325 456.34160068793153, 419.20195330557686 446.24101761870213" stroke="#1f2430" stroke-width="1.5" fill="none"></path></g><g><path d="M420.36661360491695 446.9781945891286 C421.8935795907251 450.8628481939938, 423.25429554912427 452.7744415212954, 424.9812028748994 456.8119022847749 M419.73920624697655 446.7657216411824 C421.29666462726277 449.7563229609814, 422.4252047364749 452.01915720672054, 424.92679012571244 457.19869078808483" stroke="#1f2430" stroke-width="1.5" fill="none"></path></g><g><path d="M419.67996163902154 446.49070618113643 C417.9223431703864 449.62779596157515, 417.63603708426814 452.99716711083005, 414.43750642228207 456.73574598684525 M419.80885663438363 446.77308396673686 C418.52136609096607 450.14789207326476, 416.89046058536394 453.5484844112819, 415.18053639264355 457.2854778012905" stroke="#1f2430" stroke-width="1.5" fill="none"></path></g><g><path d="M848.6876195425564 466.00916289387357 C851.4139286919767 459.6213541968107, 851.2951405728411 457.406720386122, 851.1817254916714 447.22840153885863 M850.4179522221552 467.7075465430361 C849.6026714788374 461.67446824110044, 849.2293174808019 456.9924751120328, 849.4161277581517 446.0335484199688" stroke="#1f2430" stroke-width="1.5" fill="none"></path></g><g><path d="M849.9994339931208 447.4893849809131 C852.2900294114456 450.182366932387, 853.0862281974063 453.96941448357086, 855.5319190799254 457.465240588689 M849.8472393155793 447.1541028667638 C851.253065303273 450.04433850306145, 853.1911024627329 452.91035431975183, 854.9085924392781 457.2754544152337" stroke="#1f2430" stroke-width="1.5" fill="none"></path></g><g><path d="M849.9512286027335 447.64320365282043 C847.946781045765 450.53780671035025, 846.653589613601 452.9075761532438, 844.9017744535622 457.63827726089005 M849.9482848750679 447.0857424351821 C848.5610964045923 450.209046468938, 847.333784356441 452.75551776880826, 845.3149110587286 457.11497803287256" stroke="#1f2430" stroke-width="1.5" fill="none"></path></g><g><path d="M604.709895967754 522.0430836422194 C616.3670529995392 521.2022230796057, 627.740105231433 521.6861963173013, 637.9893274347912 520.4485998199765 M605.394482801472 521.0208026300752 C613.8536398057068 521.1837496681044, 623.425966761731 520.3514072956062, 636.1985293565228 520.8692428850131" stroke="#1f2430" stroke-width="1.5" fill="none"></path></g><g><path d="M635.4544467665359 520.4137438800797 C631.5678001920905 523.0598263741381, 627.684278176469 525.01976128949, 625.8175230306657 526.3738052444229 M635.7832592371386 521.1257315652167 C633.803336356471 522.2950558205672, 631.3827690728107 523.4413810410574, 626.0840895175643 526.1819642536132" stroke="#1f2430" stroke-width="1.5" fill="none"></path></g><g><path d="M635.5009421303465 521.3928325567349 C632.5466321404127 518.8097077971164, 629.3061801874478 518.2391778109511, 625.3964788608454 516.1394009446703 M636.2844847896465 521.0125622571751 C632.331969503612 519.1113487308282, 629.0527243837676 517.2622142185049, 625.9827341131946 516.3275509072533" stroke="#1f2430" stroke-width="1.5" fill="none"></path></g><g><path d="M636.1447361126714 536.7458778752223 C631.328445903572 535.0561150656199, 622.6958927708812 534.9913613042585, 604.1575196855478 535.4994307099122 M635.9345285466848 535.3512258912621 C628.5080024388825 534.6195179023528, 619.7173866477557 534.4195684877603, 606.8166047317055 535.0646988129218" stroke="#1f2430" stroke-width="1.5" fill="none"></path></g><g><path d="M605.3582170325982 535.4717906659548 C608.4328805294844 534.0860173359034, 609.891557298463 532.8842001436473, 616.0412338849652 530.3193884876054 M605.9736584178173 535.1662030113109 C610.2044341828775 532.9320638456572, 614.0580807252212 530.7903958737854, 615.9251505355247 529.9854907689873" stroke="#1f2430" stroke-width="1.5" fill="none"></path></g><g><path d="M605.598732225129 534.7520667180437 C609.0888018223882 537.1555080596045, 613.6559540071901 539.0703196060725, 616.6452897849455 539.999422029895 M606.2829803792503 534.8847450398529 C610.0810575852065 536.7963784918198, 613.6940459628424 539.2540503491346, 616.3039912534812 539.7769053858526" stroke="#1f2430" stroke-width="1.5" fill="none"></path></g><g><path d="M459.5812870332379 603.1198029524644 L860.8700662889477 600.413127322516 L861.8467647182474 695.7158540665464 L458.09934622801205 690.3108358717238" stroke="none" stroke-width="0" fill="#dcfce7"></path><path d="M460.47821783901173 604.0993869615272 C593.7435983180886 605.3918412968181, 729.3957022785858 604.7709910878007, 860.1715699901127 603.9875333673517 M460.3326373658188 602.4241150300275 C551.9615540260409 605.111876776127, 642.5807631670071 604.293994467006, 860.5820660782172 603.0542812451444 M857.8443137110187 600.9853219833325 C858.3505311952891 623.6049355040778, 861.9643665165788 642.5467398711962, 859.8106132553418 694.973281340636 M859.1453026414248 603.3683891186115 C860.1203469125677 634.3782719963219, 859.4059137882087 668.1646917764679, 861.2122739349799 692.5438515206484 M860.7084808393392 693.1444643011387 C725.5391408327004 690.3221298716898, 590.3784583910967 690.2451381940309, 458.98047498676726 693.4978433294484 M860.5171684119232 692.9612324306821 C718.9472458943833 691.0511014411477, 578.1174108428363 692.1940770683523, 460.24847590748567 693.5545659869011 M460.72173848461307 692.2647646344444 C462.6580177347828 670.315322892443, 463.87961372027445 641.8072426719655, 461.8747972154272 605.0973641072512 M461.41549674719784 693.0033837028963 C461.5272795726752 665.2695344682858, 461.4050971273904 635.0879819620206, 458.98398352943633 603.9467288297058" stroke="#059669" stroke-width="1.5" fill="none"></path></g><text x="488" y="627" font-family="Architects Daughter" font-size="17" fill="#065f46" text-anchor="start" font-weight="bold">tools</text><text x="510" y="655" font-family="Architects Daughter" font-size="16" fill="#064e3b" text-anchor="start">message_peer</text><g><path d="M498.9495678864969 646.574826308273 C499.6573430371597 646.4187485989194, 501.05818769668576 647.0132960522648, 501.3741531001735 647.6071900570336 C501.6901185036612 648.2010840618024, 500.9142387608721 649.4511713148477, 500.84536030742333 650.138190336886 C500.7764818539746 650.8252093589244, 501.4685654186142 651.2438500076236, 500.96088237948106 651.7293041892639 C500.4531993403479 652.2147583709042, 498.44166667523007 653.0153780106052, 497.79926207262446 653.0509154267277 C497.15685747001885 653.0864528428501, 497.5897157244174 652.1464293308587, 497.10645476384735 651.9425286859984 C496.62319380327733 651.738628041138, 495.0959546721093 652.3255527842193, 494.89969630920433 651.8275115575653 C494.70343794629935 651.3294703309114, 495.61438276979584 649.7335483026047, 495.9289045864175 648.9542813260741 C496.24342640303917 648.1750143495435, 496.3432014934075 647.453434382307, 496.7868272089345 647.1519096983816 C497.2304529244615 646.8503850144562, 498.301656973161 647.0288372132252, 498.59065887957945 647.1451332225212 C498.8796607859979 647.2614292318171, 498.5671025591703 647.7485037341053, 498.5208386474449 647.8496857541571 M496.60787861282404 647.557228317357 C496.91970930659835 647.5731045933172, 498.07588903866036 647.9690700394642, 498.56781715709303 648.2884162979135 C499.0597452755257 648.6077625563628, 499.35833674865205 648.9299004376222, 499.55944732342004 649.4733058680528 C499.76055789818804 650.0167112984833, 499.5184553180328 650.8896168081853, 499.7744806057009 651.548848880497 C500.03050589336897 652.2080809528086, 501.55512213681163 653.2407270127608, 501.0955990494284 653.4286983019225 C500.6360759620452 653.6166695910842, 497.8832552883134 652.8343549297616, 497.0173420814015 652.6766766154676 C496.1514288744896 652.5189983011736, 496.45546131031483 652.7425672209512, 495.900119807957 652.4826284161586 C495.3447783055992 652.222689611366, 493.5452768606874 651.8335480603979, 493.68529306725475 651.1170437867122 C493.8253092738221 650.4005395130265, 496.01437848259474 649.0720208437762, 496.74021704736117 648.1836027740446 C497.4660556121276 647.2951847043131, 498.11680615275736 645.8233683964901, 498.0403244558534 645.786535368323 C497.96384275894945 645.749702340156, 496.60828713289726 647.675197123549, 496.2813268659375 647.9626046050425" stroke="none" stroke-width="0" fill="#059669"></path><path d="M496.5094582674436 647.3385621587188 C497.2499103975743 647.3270556990809, 498.86445464394103 647.9085323174999, 499.469245053691 648.1329932656902 C500.07403546344096 648.3574542138805, 499.952397111151 648.1385125375649, 500.13820072594336 648.6853278478604 C500.3240043407357 649.232143158156, 500.8056526441267 650.8352517061621, 500.5840667424451 651.4138851274635 C500.36248084076345 651.9925185487648, 499.23049224605614 651.7407589496411, 498.80868531585367 652.1571283756683 C498.3868783856512 652.5734978016956, 498.62209812458 653.9317161035816, 498.0532251612302 653.9121016836272 C497.4843521978804 653.8924872636727, 496.05947749852464 652.6914266141114, 495.39544753575495 652.0394418559418 C494.73141757298526 651.3874570977723, 494.1807290231948 650.7030593433306, 494.069045384612 650.0001931346098 C493.9573617460293 649.2973269258891, 494.00863421825846 648.4485314107542, 494.7253457042583 647.8222446036173 C495.44205719025814 647.1959577964803, 497.80129758797784 646.2725993825064, 498.36931430061105 646.2424722917884 C498.93733101324426 646.2123452010704, 498.15776486728225 647.523234170551, 498.1334459800577 647.6414820593092 M496.9294576179087 645.6532037452224 C497.7421177780994 645.4669071710364, 499.6240921888813 647.3666941885202, 500.1105856942937 647.9933487230022 C500.5970791997061 648.6200032574842, 499.58983012188753 648.8907606147507, 499.84841865038305 649.4131309521142 C500.1070071788786 649.9355012894778, 501.64551337225924 650.6224488609311, 501.66211686526674 651.1275707471839 C501.67872035827423 651.6326926334367, 500.48014271174213 652.0506288515091, 499.948039608428 652.4438622696312 C499.4159365051139 652.8370956877532, 499.3145322525561 653.3569009981743, 498.46949824538194 653.4869712559158 C497.6244642382078 653.6170415136573, 495.2589651752155 653.9826488083712, 494.8778355653832 653.2242838160804 C494.49670595555085 652.4659188237896, 495.9448754178203 649.8969450161434, 496.18272058638803 648.936781302171 C496.42056575495576 647.9766175881986, 495.9431957512425 647.5589650224377, 496.3049065767895 647.4633015322462 C496.6666174023365 647.3676380420546, 498.2285548313279 648.6318685006348, 498.3529855396699 648.3628003610215 C498.4774162480118 648.0937322214082, 497.3891284997844 646.1082326611237, 497.0514908268413 645.8488926945665" stroke="#059669" stroke-width="1" fill="none"></path></g><text x="510" y="677" font-family="Architects Daughter" font-size="16" fill="#064e3b" text-anchor="start">api_tools</text><g><path d="M497.1777155921575 668.7660839483059 C497.5930381267613 668.2304410340416, 497.8272491792165 668.1229079787686, 498.50701478450446 668.3676251664762 C499.18678038979243 668.6123423541837, 500.829708810951 669.6254916888336, 501.25630922388524 670.2343870745511 C501.6829096368195 670.8432824602687, 501.1532126393811 671.2270524991296, 501.0666172621099 672.0209974807814 C500.9800218848387 672.8149424624331, 501.228513156208 674.4768496267711, 500.7367369602583 674.9980569644616 C500.24496076430864 675.5192643021521, 498.8672600146702 675.2509701088574, 498.1159600864119 675.148241506924 C497.36466015815364 675.0455129049907, 496.8569438088755 674.7291861704102, 496.22893739070855 674.3816853528618 C495.6009309725416 674.0341845353134, 494.40300677140675 673.620259001439, 494.3479215774104 673.0632366016334 C494.292836383414 672.5062142018279, 495.4307375380155 671.709001234611, 495.89842622673024 671.0395509540284 C496.366114915445 670.3701006734458, 496.79950233789896 669.3758257365186, 497.15405370969887 669.0465349181378 C497.5086050814988 668.7172440997571, 498.0251578199681 669.1389788394819, 498.02573445752984 669.063806043744 M497.64301908137213 669.2426146492688 C498.48678420469236 669.0401810864146, 498.8469405603733 668.834262941334, 499.5480581267585 668.9841047555802 C500.24917569314374 669.1339465698264, 501.56744727793335 669.5403349317717, 501.8497244796836 670.1416655347462 C502.1320016814338 670.7429961377206, 501.3893336815221 671.7931125151493, 501.24172133725995 672.592088373427 C501.0941089929978 673.3910642317047, 501.3999094230373 674.590988643422, 500.9640504141108 674.935520684412 C500.52819140518426 675.2800527254021, 499.61897327455694 674.8567763485929, 498.6265672837009 674.6592806193676 C497.6341612928449 674.4617848901422, 495.69918945934614 673.9317322020809, 495.0096144689748 673.7505463090602 C494.32003947860346 673.5693604160394, 494.52238246055566 673.9378815656851, 494.48911734147276 673.5721652612431 C494.45585222238986 673.2064489568011, 494.6251344328431 672.0976930884361, 494.8100237544773 671.5562484824083 C494.9949130761115 671.0148038763804, 495.34822260309994 670.7214515291676, 495.5984532712781 670.323497625076 C495.8486839394563 669.9255437209845, 496.2107275532381 669.5301400492126, 496.31140776354624 669.1685250578591" stroke="none" stroke-width="0" fill="#059669"></path><path d="M498.49543284021684 668.0648702771609 C499.1049221050843 668.0300413621798, 500.03608634735957 668.4665355328497, 500.5867544184629 669.1243311906951 C501.1374224895662 669.7821268485405, 501.8174679117609 671.2839187125512, 501.79944126683654 672.0116442242338 C501.7814146219122 672.7393697359164, 501.0299653828804 673.04301883031, 500.47859454891676 673.4906842607909 C499.92722371495313 673.9383496912718, 499.13475353542157 674.5714017841416, 498.4912162630548 674.6976368071194 C497.84767899068805 674.8238718300971, 497.25694484475713 674.526266706122, 496.61737091471616 674.2480943986574 C495.9777969846752 673.9699220911928, 494.7893498454761 673.3934714952011, 494.653772682809 673.0286029623314 C494.5181955201419 672.6637344294618, 495.5316686047155 672.5604487835384, 495.80390793871334 672.0588832014391 C496.0761472727112 671.5573176193399, 495.75010312172975 670.6590487246464, 496.287208686796 670.0192094697356 C496.8243142518623 669.3793702148249, 498.4690514787391 668.5195379341371, 499.02654132911107 668.2198476719747 C499.584031179483 667.9201574098122, 499.68851088697573 668.1537142954542, 499.6321477890276 668.2210678967612 M500.7383456518687 670.0695090943403 C501.5812437968686 670.3324193599495, 502.1417435884591 671.2005267240603, 502.1082490642549 671.7633542643875 C502.07475454005066 672.3261818047148, 501.0885651903554 672.8971218834002, 500.53737850664334 673.4464743363038 C499.9861918229313 673.9958267892074, 499.5026630082935 674.9089235884761, 498.8011289619827 675.0594689818091 C498.09959491567196 675.2100143751421, 496.92736497718715 674.7026884017396, 496.32817422877866 674.3497466963017 C495.7289834803702 673.9968049908639, 495.47055782128234 673.2483692824281, 495.2059844715318 672.9418187491823 C494.94141112178124 672.6352682159364, 494.4502445861505 673.0483983455663, 494.7407341302755 672.5104434968266 C495.03122367440045 671.9724886480869, 496.6958524559403 670.4513742241495, 496.94892173628165 669.7140896567444 C497.20199101662297 668.9768050893392, 496.077708800272 667.9152793017479, 496.25914981232336 668.086736092396 C496.44059082437474 668.2581928830441, 497.31639184382493 670.3672488466965, 498.0375678085899 670.7428304006328 C498.7587437733549 671.1184119545691, 500.5829600745119 670.5249055385257, 500.58620560091316 670.3402254160135" stroke="#059669" stroke-width="1" fill="none"></path></g><g><path d="M173.8538992186963 132.98803126741362 L219.09674815680322 136.24752179902745 L219.7592045676673 699.5245450355568 L171.57078052891674 698.493366436888" stroke="none" stroke-width="0" fill="#f3f4f6"></path><path d="M174.4636118854809 134.3843949883452 C178.9435426862855 136.3843142771605, 192.4042631074374 134.25226665575136, 217.13352428595937 138.03500938612743 M172.7137406961775 133.53950357257952 C187.30947955682686 133.65768710533197, 199.465659066753 134.88437723310255, 220.79858474446374 133.82328410338533 M220.14137560096705 135.87158246706852 C215.79597159646633 336.70629247652755, 215.69730155326596 539.2612988138825, 220.734870357485 700.2087863497859 M220.57171522098648 135.19937148984326 C220.49753689412884 313.6720518421172, 219.71581344239635 491.7504189251126, 219.5742586227294 700.3334671963382 M221.06832508054265 698.2699387283402 C205.81538759833828 700.0844269800327, 196.12512050766364 700.6374420241604, 169.15912348794015 699.3347755365318 M219.4677018264308 698.7786318285782 C209.7645270746147 701.6001285526092, 200.2233388188152 700.5404561564671, 173.25790626550233 701.2994745057786 M171.78499386288564 700.0250542209311 C168.54913578197298 508.6669950542631, 169.10323108372728 315.74983653205305, 170.83772040881962 135.59933472067422 M172.51859169100914 699.6525089715943 C172.27642537182135 557.98399559369, 172.30995880495286 415.38112132345367, 172.2445610261586 135.25191342539097" stroke="#6b7280" stroke-width="1.5" fill="none"></path></g><text x="196" y="417.5" font-family="Architects Daughter" font-size="20" font-weight="bold" fill="#374151" text-anchor="middle" transform="rotate(-90 196 417.5)">mailbox</text><g><path d="M222.03867702135562 294.387591279124 C243.4682126105812 296.03361774051746, 263.4098800323515 295.4665663880952, 284.41839036860426 294.65729373306107 M224.9326691237814 295.9088290619029 C247.69417058379562 296.06161656549534, 271.21472746162084 295.888922247735, 284.5970679598964 296.18315500211276" stroke="#1f2430" stroke-width="1.5" fill="none"></path></g><g><path d="M284.6252159374734 295.74255013407725 C280.75430185413825 297.4815930658289, 277.55383476507876 298.8003667333224, 274.0822003564917 300.8944213617617 M284.27288115399557 296.2286249524354 C280.86591501040994 297.4882025970445, 277.94959611866375 299.3358662665475, 274.1550765161655 301.2718149553129" stroke="#1f2430" stroke-width="1.5" fill="none"></path></g><g><path d="M283.9755551501506 295.40625020060867 C281.49683506195487 294.28693674525687, 278.8889253020362 293.71775108733954, 274.4456114353709 290.8348132673681 M284.3273856880396 296.31570752963864 C281.91909917216833 295.1531266113096, 279.62367731402713 294.0649937859817, 274.162015893276 291.176506438542" stroke="#1f2430" stroke-width="1.5" fill="none"></path></g><text x="80" y="127" font-family="Architects Daughter" font-size="19" fill="#1f2430" text-anchor="start" font-weight="bold">messages</text><g><path d="M79.95208963279043 228.671170915359 L110.74526528440136 227.43452117226917 L109.49548409286673 246.1027184458477 L82.87233348369666 245.48198033048448" stroke="none" stroke-width="0" fill="#ffffff"></path><path d="M82.76499024273885 229.10041803643415 C92.5247651057387 226.74340209431733, 102.86538797723759 227.55378705755413, 107.08077140740286 226.19813159229722 M80.64621012058795 228.09842839327825 C89.73939404486192 227.6414676888096, 100.71924916549685 228.37823997870456, 108.93033291818337 228.07730118842449 M108.69378586299663 226.95964951935073 C109.6269705913631 232.20468803785465, 110.03603735437599 234.25184068458748, 108.42762381097145 246.96022015084546 M109.42124080737486 227.9710236820796 C108.76707162541501 231.73069237373815, 108.0200237827128 237.10923672110982, 109.94103550328805 245.47013504880553 M108.61801529093226 245.01509225066306 C101.23331274732125 245.17941833139975, 93.16630388662293 246.35999260392367, 82.13191650785478 245.79433690166454 M108.32738807666884 245.41868314411477 C101.49661719547791 245.89862541821694, 94.87978240802491 246.34907400534155, 81.69873155211312 245.43793898403402 M82.00522754336426 244.1538475457785 C81.97559102311892 243.22115678853052, 81.66257143793261 234.92124877343585, 82.61111158828898 229.23847595637332 M81.33228916864824 245.71275602205074 C80.35964264433376 241.25064708801668, 80.4366450784662 238.39897453688474, 80.78639093258592 228.33547141619007" stroke="#1f2430" stroke-width="1.3" fill="none"></path></g><g><path d="M81.00987741259021 227.62203870217326 C85.92123425459292 228.83804077058844, 87.6192432686619 233.0000960163508, 94.94824001444401 236.73082252992614 M80.37811653687561 227.61875527077154 C86.18356982430028 231.35798703593753, 91.78195241841074 234.9507330662243, 95.49891613048548 238.0582941913957" stroke="#1f2430" stroke-width="1.2" fill="none"></path></g><g><path d="M109.22742222090575 226.9472119086101 C104.07609017308928 230.15235741106892, 98.9189812174322 236.2800499573019, 94.3124133577225 237.06779512690244 M109.26852748332075 227.72896332127775 C105.80201163170157 230.23589896120453, 103.27731259631605 231.4494601370084, 94.73398813676128 237.25372386257254" stroke="#1f2430" stroke-width="1.2" fill="none"></path></g><g><path d="M115.70092057111567 237.01950639270768 C126.87195961922242 238.2303934419792, 138.73728585350113 236.7588266081857, 167.18694610116785 236.25868154743586 M114.59474222495653 236.08685957791707 C136.17367490988585 236.44968782412158, 158.0445355239013 236.0085180137918, 169.98561201319578 235.85899054354607" stroke="#1f2430" stroke-width="1.5" fill="none"></path></g><g><path d="M168.7614709034381 236.15698196481276 C167.26581554589873 237.44914599495624, 164.77042603679246 238.49725021238646, 158.9827807400683 241.16087034927386 M169.10635634492027 236.49878308558792 C165.65410098122382 238.28854176766015, 161.5729467263277 240.24652418125973, 159.1960879569429 241.53807002738716" stroke="#1f2430" stroke-width="1.5" fill="none"></path></g><g><path d="M169.00116086513034 236.61317557148965 C164.70393295105364 234.61620313024693, 161.59896190228963 233.21479217015127, 158.97992968121167 231.40012704284146 M169.1804573480141 236.563500542392 C165.4275321105243 235.2365631620545, 162.71311761394261 233.58843093713594, 158.974327001473 231.88642633894526" stroke="#1f2430" stroke-width="1.5" fill="none"></path></g><g><path d="M79.37979539104795 408.90064941506586 L107.88809660183986 409.5454718012717 L107.89159892105585 424.8367922762471 L79.3056096688685 428.7831895720626" stroke="none" stroke-width="0" fill="#ffffff"></path><path d="M79.86870294688967 410.33732102561606 C85.84750032155128 409.23980471103914, 93.29015336425246 407.3510795193718, 108.86813602497669 409.34552072743475 M81.66992386539752 408.44462158678823 C86.11342169430088 408.0873136762477, 91.47029360575667 408.14067084797927, 108.61639209274858 408.72403833518905 M106.98534913849021 407.7817156832843 C107.40216658024038 414.72301092818435, 109.88542851436429 421.00709157216585, 108.21875956527198 424.69659878894714 M109.80636436777473 408.878133705266 C109.45540514120127 412.27067079776197, 110.06750121245244 416.6691603494377, 109.9481335725563 427.4575477353007 M109.03830510661626 426.8616004052823 C101.0724251254367 428.4390059156977, 95.42170361575226 428.3286183680929, 82.72062258619175 424.1513291787249 M109.70362232072225 427.3891166686908 C97.6513162075235 426.39888133606144, 85.73113513961943 426.06283029785624, 79.87698246850712 426.99364393425736 M79.0509159720505 426.4834861232302 C79.84271537846034 420.753675525909, 81.59608677250117 416.89563848586675, 82.29895945765674 407.11430262942656 M80.19605159639846 427.16974092792 C81.39333362732368 419.5056542036467, 80.3661751483982 415.03945624232455, 80.38509549468142 407.7471014252656" stroke="#1f2430" stroke-width="1.3" fill="none"></path></g><g><path d="M80.03212864515592 408.97231714151894 C86.73206741074458 412.80558465970876, 90.60815273367184 415.47748231207424, 94.78853134867909 418.63314437262585 M81.35757294420253 408.39627919231935 C84.46843749800354 411.0533840622049, 88.53416685126983 413.2191429332978, 94.51693230239604 418.22987097690435" stroke="#1f2430" stroke-width="1.2" fill="none"></path></g><g><path d="M110.23971821999172 408.1150457426732 C102.91587649842121 412.60609699060495, 99.22731544027845 414.72963688408106, 96.24538476600311 417.4841849035278 M108.62224021323222 408.62095704039314 C104.02213358980099 411.8268604965577, 99.18981450422203 415.07542245394984, 94.59026618821586 418.21492244163596" stroke="#1f2430" stroke-width="1.2" fill="none"></path></g><g><path d="M116.83007780225483 416.79299133246224 C128.77918042306266 415.83260268096393, 144.66280765243025 415.390485804741, 169.62649759623716 417.31319847049906 M115.1994414400876 417.40041934560384 C135.2592869344441 417.616225279821, 155.58658689589512 417.66631500413905, 168.1488498116506 418.2827254317411" stroke="#1f2430" stroke-width="1.5" fill="none"></path></g><g><path d="M168.77038099566195 417.4134026561839 C166.4885941359446 418.61589391266165, 164.16638291858152 420.39145461528, 158.5149471483517 422.43601926943234 M169.24156421701363 417.66828564217667 C165.37207453072853 419.23840964083354, 162.29412358534708 421.07256697842195, 159.11880935520404 422.3285510557085" stroke="#1f2430" stroke-width="1.5" fill="none"></path></g><g><path d="M168.40529220853645 417.8194248307852 C166.25698391837938 416.2921598655161, 162.4450715344891 413.91293548616017, 158.38776568522562 412.8889953212073 M168.7491965505135 417.2067254771281 C165.23868517176405 415.6593533917399, 161.49568001762438 413.4580907667096, 158.81788639031706 412.51984467570674" stroke="#1f2430" stroke-width="1.5" fill="none"></path></g><g><path d="M78.90644551803395 587.5452825723502 L110.87350014861906 587.6562758903837 L106.74747474578724 606.0344425626869 L82.60596023570767 607.8255667443524" stroke="none" stroke-width="0" fill="#ffffff"></path><path d="M81.97730239693516 591.6384422001163 C90.17445498360871 590.0503907666679, 92.27123236415292 589.3094553676522, 108.03352228168299 588.1779620253436 M79.80352001830111 589.4844014290744 C89.01970263067186 590.4364736888405, 96.27095453300542 589.8361871021306, 108.3867931626849 590.245475472795 M107.69406592186837 591.0863417565517 C108.53829101479127 593.8694097184564, 110.88125529678767 601.6331359578685, 107.06714921636296 605.9138356572888 M109.65039505372185 588.47391057304 C108.68992117875929 596.1661867006392, 108.66520278400719 601.4229434406956, 109.25934689658233 606.7361835906945 M108.89640371567563 606.9051211031046 C100.03604822302431 605.8940365234671, 89.30739659501451 606.0285039155254, 80.4086982040425 609.2268542270438 M108.37297846837441 606.3305961893265 C100.8383875390599 606.2137397132515, 93.82371633741425 606.4734107557606, 81.6176341415319 606.215457599995 M81.38365989193164 606.5818625460256 C82.2089489685922 604.5982548707044, 81.8660970806716 600.0443827842888, 81.30483743279643 591.2471276092014 M80.6389445080155 607.1983870420398 C80.36030710863248 601.6592612987116, 79.89958207472502 595.8971800686148, 80.98694119008658 588.6745583824038" stroke="#1f2430" stroke-width="1.3" fill="none"></path></g><g><path d="M81.6735247737628 589.2377479071645 C84.18182568784621 590.7114634286254, 87.71435123151917 594.2297004006674, 96.0781084349223 598.1060344013567 M80.97810905668432 589.330827164167 C84.8191780187622 592.2698786047009, 89.89404286946935 595.52456209737, 94.79745222372445 598.7010783837741" stroke="#1f2430" stroke-width="1.2" fill="none"></path></g><g><path d="M108.84832819522693 589.6275364428046 C103.78475067713447 593.9872329267424, 98.48942400108308 596.4540741780131, 95.4082505761033 598.9173865316847 M108.33412155925586 589.5630561101389 C106.45583495855787 591.0256823443267, 102.87649527647929 593.2823783841283, 95.10679324150667 599.3681275544234" stroke="#1f2430" stroke-width="1.2" fill="none"></path></g><g><path d="M116.8006072892039 596.3580380066239 C127.9237846920201 596.7614584147824, 142.1853893355617 599.8211385705441, 170.40919467137033 599.0987731516524 M115.3782230482326 597.5768359628503 C134.44948574910075 598.4520051422567, 153.8512348999928 598.7558578647885, 168.67849243929095 598.6548596305508" stroke="#1f2430" stroke-width="1.5" fill="none"></path></g><g><path d="M168.39320258925991 598.3326946586889 C165.3092014529252 599.7145101311579, 161.8333089695852 602.595201682557, 159.4290498426457 603.1664830528313 M168.74670660243015 598.0308582921288 C165.54575735283214 599.9867968906689, 162.1352776538629 601.6302285644243, 159.1342997042593 603.1414006636708" stroke="#1f2430" stroke-width="1.5" fill="none"></path></g><g><path d="M169.6593551734521 598.3672510719288 C167.14575515349716 597.5086131459003, 164.42755532971475 596.0302068909327, 159.49262507404123 592.8584510340888 M169.22000816440405 598.2975585162983 C166.60570366295818 597.0444309976898, 164.37611751431436 595.6207273313838, 158.67371742716787 593.574348845559" stroke="#1f2430" stroke-width="1.5" fill="none"></path></g></svg>